<svg viewBox="0 0 40 42" xmlns="http://www.w3.org/2000/svg" xml:space="preserve" style="fill-rule:evenodd;clip-rule:evenodd;stroke-linejoin:round;stroke-miterlimit:2"><path d="M33.752 53.565c-.968.581-2.537.581-3.504 0L12.726 43.051c-.968-.581-.968-1.522 0-2.103l17.522-10.513c.968-.581 2.537-.581 3.504 0l17.522 10.513c.968.581.968 1.522 0 2.103L33.752 53.565Z" style="fill:#231f20;fill-rule:nonzero" transform="translate(-12 -12)" opacity=".2"/><path d="M33.752 51.565c-.968.581-2.537.581-3.504 0L12.726 41.051c-.968-.581-.968-1.522 0-2.103l17.522-10.513c.968-.581 2.537-.581 3.504 0l17.522 10.513c.968.581.968 1.522 0 2.103L33.752 51.565Z" style="fill:#c75c5c;fill-rule:nonzero" transform="translate(-12 -12)"/><path d="M33.752 45.565c-.968.581-2.537.581-3.504 0L12.726 35.051c-.968-.581-.968-1.522 0-2.103l17.522-10.513c.968-.581 2.537-.581 3.504 0l17.522 10.513c.968.581.968 1.522 0 2.103L33.752 45.565Z" style="fill:#231f20;fill-rule:nonzero" transform="translate(-12 -12)" opacity=".2"/><path d="M33.752 43.565c-.968.581-2.537.581-3.504 0L12.726 33.051c-.968-.581-.968-1.522 0-2.103l17.522-10.513c.968-.581 2.537-.581 3.504 0l17.522 10.513c.968.581.968 1.522 0 2.103L33.752 43.565Z" style="fill:#76c2af;fill-rule:nonzero" transform="translate(-12 -12)"/><path d="M33.752 37.565c-.968.581-2.537.581-3.504 0L12.726 27.051c-.968-.581-.968-1.522 0-2.103l17.522-10.513c.968-.581 2.537-.581 3.504 0l17.522 10.513c.968.581.968 1.522 0 2.103L33.752 37.565Z" style="fill:#231f20;fill-rule:nonzero" transform="translate(-12 -12)" opacity=".2"/><path d="M33.752 35.565c-.968.581-2.537.581-3.504 0L12.726 25.051c-.968-.581-.968-1.522 0-2.103l17.522-10.513c.968-.581 2.537-.581 3.504 0l17.522 10.513c.968.581.968 1.522 0 2.103L33.752 35.565Z" style="fill:#4f5d73;fill-rule:nonzero" transform="translate(-12 -12)"/></svg>
