<?xml version="1.0" encoding="UTF-8" standalone="no"?>
<!DOCTYPE svg PUBLIC "-//W3C//DTD SVG 1.1//EN" "http://www.w3.org/Graphics/SVG/1.1/DTD/svg11.dtd">
<svg width="100%" height="100%" viewBox="0 0 512 512" version="1.1" xmlns="http://www.w3.org/2000/svg" xmlns:xlink="http://www.w3.org/1999/xlink" xml:space="preserve" xmlns:serif="http://www.serif.com/" style="fill-rule:evenodd;clip-rule:evenodd;stroke-linejoin:round;stroke-miterlimit:2;">
    <g transform="matrix(3.17881,0,0,2.49052,-166.605,178.91)">
        <path d="M52.411,40.411C52.411,26.189 54.9,13.344 59.878,1.877C64.856,-9.589 71.611,-19.411 80.145,-27.589C88.678,-35.767 98.633,-42.034 110.011,-46.389C121.389,-50.745 133.478,-52.923 146.278,-52.923C156.411,-52.923 165.433,-51.945 173.345,-49.989C181.256,-48.034 188.056,-45.811 193.745,-43.323C200.322,-40.478 206.011,-37.367 210.811,-33.989L182.811,15.344C179.967,13.211 176.856,11.166 173.478,9.211C170.456,7.789 166.856,6.411 162.678,5.077C158.5,3.744 153.745,3.077 148.411,3.077C142.9,3.077 137.833,4.055 133.211,6.011C128.589,7.966 124.545,10.633 121.078,14.011C117.611,17.389 114.9,21.344 112.945,25.877C110.989,30.411 110.011,35.255 110.011,40.411C110.011,45.566 111.033,50.411 113.078,54.944C115.122,59.477 117.922,63.433 121.478,66.811C125.033,70.189 129.211,72.855 134.011,74.811C138.811,76.766 144.056,77.744 149.745,77.744C155.433,77.744 160.5,77.033 164.945,75.611C169.389,74.189 173.122,72.589 176.145,70.811C179.7,68.855 182.811,66.544 185.478,63.877L213.478,113.211C208.678,117.122 202.989,120.589 196.411,123.611C190.722,126.1 183.878,128.411 175.878,130.544C167.878,132.677 158.722,133.744 148.411,133.744C134.545,133.744 121.745,131.477 110.011,126.944C98.278,122.411 88.145,116.055 79.611,107.877C71.078,99.7 64.411,89.877 59.611,78.411C54.811,66.944 52.411,54.277 52.411,40.411Z" style="fill-rule:nonzero;"/>
    </g>
    <g transform="matrix(3.17881,0,0,2.49052,-166.605,154.215)">
        <path d="M52.411,40.411C52.411,26.189 54.9,13.344 59.878,1.877C64.856,-9.589 71.611,-19.411 80.145,-27.589C88.678,-35.767 98.633,-42.034 110.011,-46.389C121.389,-50.745 133.478,-52.923 146.278,-52.923C156.411,-52.923 165.433,-51.945 173.345,-49.989C181.256,-48.034 188.056,-45.811 193.745,-43.323C200.322,-40.478 206.011,-37.367 210.811,-33.989L182.811,15.344C179.967,13.211 176.856,11.166 173.478,9.211C170.456,7.789 166.856,6.411 162.678,5.077C158.5,3.744 153.745,3.077 148.411,3.077C142.9,3.077 137.833,4.055 133.211,6.011C128.589,7.966 124.545,10.633 121.078,14.011C117.611,17.389 114.9,21.344 112.945,25.877C110.989,30.411 110.011,35.255 110.011,40.411C110.011,45.566 111.033,50.411 113.078,54.944C115.122,59.477 117.922,63.433 121.478,66.811C125.033,70.189 129.211,72.855 134.011,74.811C138.811,76.766 144.056,77.744 149.745,77.744C155.433,77.744 160.5,77.033 164.945,75.611C169.389,74.189 173.122,72.589 176.145,70.811C179.7,68.855 182.811,66.544 185.478,63.877L213.478,113.211C208.678,117.122 202.989,120.589 196.411,123.611C190.722,126.1 183.878,128.411 175.878,130.544C167.878,132.677 158.722,133.744 148.411,133.744C134.545,133.744 121.745,131.477 110.011,126.944C98.278,122.411 88.145,116.055 79.611,107.877C71.078,99.7 64.411,89.877 59.611,78.411C54.811,66.944 52.411,54.277 52.411,40.411Z" style="fill:white;fill-rule:nonzero;"/>
    </g>
    <g transform="matrix(3.17881,0,0,2.49052,-166.605,131.805)">
        <path d="M52.411,40.411C52.411,26.189 54.9,13.344 59.878,1.877C64.856,-9.589 71.611,-19.411 80.145,-27.589C88.678,-35.767 98.633,-42.034 110.011,-46.389C121.389,-50.745 133.478,-52.923 146.278,-52.923C156.411,-52.923 165.433,-51.945 173.345,-49.989C181.256,-48.034 188.056,-45.811 193.745,-43.323C200.322,-40.478 206.011,-37.367 210.811,-33.989L182.811,15.344C179.967,13.211 176.856,11.166 173.478,9.211C170.456,7.789 166.856,6.411 162.678,5.077C158.5,3.744 153.745,3.077 148.411,3.077C142.9,3.077 137.833,4.055 133.211,6.011C128.589,7.966 124.545,10.633 121.078,14.011C117.611,17.389 114.9,21.344 112.945,25.877C110.989,30.411 110.011,35.255 110.011,40.411C110.011,45.566 111.033,50.411 113.078,54.944C115.122,59.477 117.922,63.433 121.478,66.811C125.033,70.189 129.211,72.855 134.011,74.811C138.811,76.766 144.056,77.744 149.745,77.744C155.433,77.744 160.5,77.033 164.945,75.611C169.389,74.189 173.122,72.589 176.145,70.811C179.7,68.855 182.811,66.544 185.478,63.877L213.478,113.211C208.678,117.122 202.989,120.589 196.411,123.611C190.722,126.1 183.878,128.411 175.878,130.544C167.878,132.677 158.722,133.744 148.411,133.744C134.545,133.744 121.745,131.477 110.011,126.944C98.278,122.411 88.145,116.055 79.611,107.877C71.078,99.7 64.411,89.877 59.611,78.411C54.811,66.944 52.411,54.277 52.411,40.411Z" style="fill:rgb(110,39,39);fill-rule:nonzero;"/>
    </g>
</svg>
